<svg width="512" height="512" viewBox="0 0 512 512" fill="none" xmlns="http://www.w3.org/2000/svg">
<rect width="512" height="512" rx="28" fill="url(#paint0_linear_11_3)"/>
<path d="M38 142C38 139.791 39.7909 138 42 138H242.964C246.196 138 248.094 141.635 246.246 144.287L215.05 189.066C214.302 190.14 213.076 190.78 211.768 190.78H42C39.7909 190.78 38 188.989 38 186.78V142Z" fill="white"/>
<path d="M42 139H242.965C245.313 139 246.722 141.558 245.548 143.526L245.426 143.715L214.229 188.494C213.669 189.299 212.749 189.779 211.768 189.779H42C40.3431 189.779 39 188.436 39 186.779V142C39 140.343 40.3431 139 42 139Z" stroke="black" stroke-opacity="0.46" stroke-width="2"/>
<path d="M38 381.31C38 383.519 39.7909 385.31 42 385.31H242.964C246.196 385.31 248.094 381.676 246.246 379.024L215.05 334.244C214.302 333.171 213.076 332.531 211.768 332.531H42C39.7909 332.531 38 334.321 38 336.531V381.31Z" fill="white"/>
<path d="M42 384.31H242.965C245.313 384.31 246.722 381.752 245.548 379.784L245.426 379.595L214.229 334.816C213.669 334.011 212.749 333.531 211.768 333.531H42C40.3431 333.531 39 334.874 39 336.531V381.31C39 382.967 40.3431 384.31 42 384.31Z" stroke="black" stroke-opacity="0.46" stroke-width="2"/>
<rect x="38" y="236.019" width="138.735" height="52.7795" rx="4" fill="white"/>
<rect x="39" y="237.019" width="136.735" height="50.7795" rx="3" stroke="black" stroke-opacity="0.46" stroke-width="2"/>
<mask id="path-8-inside-1_11_3" fill="white">
<path d="M458 138C466.836 138 474 145.164 474 154V369.31C474 378.146 466.836 385.31 458 385.31H419.633C411.348 385.31 404.633 378.594 404.633 370.31V358.086C404.633 349.802 411.348 343.086 419.633 343.086H428.809C433.779 343.086 437.809 339.057 437.809 334.086V190.732C437.808 185.761 433.779 181.732 428.809 181.732H308.073C303.103 181.732 299.073 185.761 299.073 190.732V334.086C299.073 339.056 303.103 343.086 308.073 343.086H315.741C324.025 343.086 330.741 349.802 330.741 358.086V370.31C330.741 378.594 324.025 385.31 315.741 385.31H277.374C268.537 385.31 261.374 378.146 261.374 369.31V154C261.374 145.164 268.537 138 277.374 138H458Z"/>
</mask>
<path d="M458 138C466.836 138 474 145.164 474 154V369.31C474 378.146 466.836 385.31 458 385.31H419.633C411.348 385.31 404.633 378.594 404.633 370.31V358.086C404.633 349.802 411.348 343.086 419.633 343.086H428.809C433.779 343.086 437.809 339.057 437.809 334.086V190.732C437.808 185.761 433.779 181.732 428.809 181.732H308.073C303.103 181.732 299.073 185.761 299.073 190.732V334.086C299.073 339.056 303.103 343.086 308.073 343.086H315.741C324.025 343.086 330.741 349.802 330.741 358.086V370.31C330.741 378.594 324.025 385.31 315.741 385.31H277.374C268.537 385.31 261.374 378.146 261.374 369.31V154C261.374 145.164 268.537 138 277.374 138H458Z" fill="white"/>
<path d="M428.809 343.086V345.086H428.809L428.809 343.086ZM437.809 190.732H439.809V190.732L437.809 190.732ZM428.809 181.732L428.809 179.732H428.809V181.732ZM308.073 181.732V179.732H308.073L308.073 181.732ZM299.073 190.732L297.073 190.732V190.732H299.073ZM308.073 343.086L308.073 345.086H308.073V343.086ZM277.374 385.31L277.374 387.31H277.374V385.31ZM261.374 154L259.374 154V154H261.374ZM458 138V140C465.732 140 472 146.268 472 154H474H476C476 144.059 467.941 136 458 136V138ZM474 154H472V369.31H474H476V154H474ZM474 369.31H472C472 377.042 465.732 383.31 458 383.31V385.31V387.31C467.941 387.31 476 379.251 476 369.31H474ZM458 385.31V383.31H419.633V385.31V387.31H458V385.31ZM404.633 370.31H406.633V358.086H404.633H402.633V370.31H404.633ZM419.633 343.086V345.086H428.809V343.086V341.086H419.633V343.086ZM428.809 343.086L428.809 345.086C434.884 345.086 439.809 340.161 439.809 334.086H437.809H435.809C435.809 337.952 432.674 341.086 428.808 341.086L428.809 343.086ZM437.809 334.086H439.809V190.732H437.809H435.809V334.086H437.809ZM437.809 190.732L439.809 190.732C439.808 184.657 434.884 179.732 428.809 179.732L428.809 181.732L428.808 183.732C432.674 183.732 435.808 186.866 435.809 190.732L437.809 190.732ZM428.809 181.732V179.732H308.073V181.732V183.732H428.809V181.732ZM308.073 181.732L308.073 179.732C301.998 179.732 297.073 184.657 297.073 190.732L299.073 190.732L301.073 190.732C301.073 186.866 304.207 183.732 308.073 183.732L308.073 181.732ZM299.073 190.732H297.073V334.086H299.073H301.073V190.732H299.073ZM299.073 334.086H297.073C297.073 340.161 301.998 345.086 308.073 345.086L308.073 343.086L308.073 341.086C304.207 341.086 301.073 337.952 301.073 334.086H299.073ZM308.073 343.086V345.086H315.741V343.086V341.086H308.073V343.086ZM330.741 358.086H328.741V370.31H330.741H332.741V358.086H330.741ZM315.741 385.31V383.31H277.374V385.31V387.31H315.741V385.31ZM277.374 385.31V383.31C269.642 383.31 263.374 377.042 263.374 369.31H261.374H259.374C259.374 379.251 267.433 387.31 277.374 387.31L277.374 385.31ZM261.374 369.31H263.374V154H261.374H259.374V369.31H261.374ZM261.374 154L263.374 154C263.374 146.268 269.642 140 277.374 140V138V136C267.433 136 259.374 144.059 259.374 154L261.374 154ZM277.374 138V140H458V138V136H277.374V138ZM330.741 370.31H328.741C328.741 377.489 322.921 383.31 315.741 383.31V385.31V387.31C325.13 387.31 332.741 379.699 332.741 370.31H330.741ZM404.633 358.086H406.633C406.633 350.906 412.453 345.086 419.633 345.086V343.086V341.086C410.244 341.086 402.633 348.697 402.633 358.086H404.633ZM315.741 343.086V345.086C322.921 345.086 328.741 350.906 328.741 358.086H330.741H332.741C332.741 348.697 325.13 341.086 315.741 341.086V343.086ZM419.633 385.31V383.31C412.453 383.31 406.633 377.489 406.633 370.31H404.633H402.633C402.633 379.699 410.244 387.31 419.633 387.31V385.31Z" fill="black" fill-opacity="0.46" mask="url(#path-8-inside-1_11_3)"/>
<rect x="345" y="262" width="45" height="160" rx="7" fill="white"/>
<rect x="346" y="263" width="43" height="158" rx="6" stroke="black" stroke-opacity="0.46" stroke-width="2"/>
<defs>
<linearGradient id="paint0_linear_11_3" x1="256" y1="0" x2="256" y2="512" gradientUnits="userSpaceOnUse">
<stop stop-color="#3E279A"/>
<stop offset="1" stop-color="#A79CD4"/>
</linearGradient>
</defs>
</svg>
