<svg width="313" height="195" viewBox="0 0 313 195" fill="none" xmlns="http://www.w3.org/2000/svg">
<path d="M0 0H141L116.617 35H0V0Z" fill="black"/>
<path d="M0 164H141L116.617 129H0V164Z" fill="black"/>
<rect y="65" width="92" height="35" fill="black"/>
<path d="M297 0C305.837 1.9972e-06 313 7.16345 313 16V148C313 156.837 305.837 164 297 164H275C270.582 164 267 160.418 267 156V144C267 139.582 270.582 136 275 136H280C284.971 136 289 131.971 289 127V38C289 33.0294 284.971 29 280 29H206C201.029 29 197 33.0294 197 38V127C197 131.971 201.029 136 206 136H210C214.418 136 218 139.582 218 144V156C218 160.418 214.418 164 210 164H188C179.163 164 172 156.837 172 148V16C172 7.16345 179.163 0 188 0H297Z" fill="black"/>
<rect x="232" y="117" width="22" height="78" rx="7" fill="black"/>
</svg>
